<?xml version="1.0" encoding="UTF-8" standalone="no"?>
<svg
   xmlns:dc="http://purl.org/dc/elements/1.1/"
   xmlns:cc="http://creativecommons.org/ns#"
   xmlns:rdf="http://www.w3.org/1999/02/22-rdf-syntax-ns#"
   xmlns:svg="http://www.w3.org/2000/svg"
   xmlns="http://www.w3.org/2000/svg"
   xmlns:sodipodi="http://sodipodi.sourceforge.net/DTD/sodipodi-0.dtd"
   xmlns:inkscape="http://www.inkscape.org/namespaces/inkscape"
   width="48"
   height="48"
   viewBox="0 0 12.7 12.7"
   version="1.1"
   id="svg2440"
   sodipodi:docname="com.discordapp.Discord.svg"
   inkscape:version="0.92.4 5da689c313, 2019-01-14">
  <metadata
     id="metadata2446">
    <rdf:RDF>
      <cc:Work
         rdf:about="">
        <dc:format>image/svg+xml</dc:format>
        <dc:type
           rdf:resource="http://purl.org/dc/dcmitype/StillImage" />
        <dc:title></dc:title>
      </cc:Work>
    </rdf:RDF>
  </metadata>
  <defs
     id="defs2444" />
  <sodipodi:namedview
     pagecolor="#ffffff"
     bordercolor="#666666"
     borderopacity="1"
     objecttolerance="10"
     gridtolerance="10"
     guidetolerance="10"
     inkscape:pageopacity="0"
     inkscape:pageshadow="2"
     inkscape:window-width="1870"
     inkscape:window-height="1055"
     id="namedview2442"
     showgrid="false"
     inkscape:zoom="17.875"
     inkscape:cx="24"
     inkscape:cy="25.780602"
     inkscape:window-x="50"
     inkscape:window-y="0"
     inkscape:window-maximized="1"
     inkscape:current-layer="svg2440" />
  <path
     id="path2438"
     transform="scale(0.26458333)"
     style="fill:#a02c2c;stroke-width:3.77952766"
     d="m 23.976562,0.27148438 v 0.003906 A 23.773228,23.773228 0 0 0 0.203125,24.048828 23.773228,23.773228 0 0 0 23.976562,47.814453 23.773228,23.773228 0 0 0 47.75,24.044922 23.773228,23.773228 0 0 0 23.976562,0.27148438 Z M 23.910156,3.8144531 A 20.435906,20.435906 0 0 1 44.345703,24.25 20.435906,20.435906 0 0 1 23.910156,44.685547 20.435906,20.435906 0 0 1 3.4765625,24.25 20.435906,20.435906 0 0 1 23.910156,3.8164062 Z m 3.058594,4.6503907 c 0.02608,0.031796 0.05007,0.062128 0.07422,0.091797 0.01186,-0.00118 0.01853,-0.012532 0.03125,-0.011719 -0.03899,-0.032155 -0.06675,-0.050198 -0.103516,-0.080078 a 9.1199992,9.1199992 0 0 0 -0.002,0 z m 9.617188,11.0859372 c 0.01017,0.01514 0.02096,0.02986 0.03125,0.04492 -2.7e-4,-0.0032 2.72e-4,-0.0065 0,-0.0098 -0.0045,-0.0052 -0.01319,-0.01441 -0.01758,-0.01953 -0.0045,-0.0053 -0.0092,-0.01037 -0.01367,-0.01563 z m -0.396485,2.097657 c 0.02197,0.04401 0.04265,0.08871 0.06445,0.132812 0.01144,0.01597 0.01128,0.0143 0.02344,0.03125 0.01178,0.02018 0.01987,0.03245 0.03125,0.05078 0.002,0.0025 0.0038,0.0053 0.0059,0.0078 0.0061,-0.01094 0.01146,-0.0223 0.01758,-0.0332 -0.04432,-0.05927 -0.104223,-0.136426 -0.142578,-0.189453 z m -4.603515,4.386718 c 0.0098,0.02017 0.01945,0.04023 0.0293,0.06055 a 9.1199992,9.1199992 0 0 0 0.01367,-0.0039 c -0.01423,-0.01892 -0.02873,-0.03773 -0.04297,-0.05664 z m -9.296876,3.40625 c 0.01926,0.02837 0.03919,0.06293 0.05859,0.0918 0.0078,0.0098 0.01105,0.01337 0.01758,0.02148 l 0.0078,-0.0059 c -0.02786,-0.03591 -0.05588,-0.07171 -0.08398,-0.107422 z m -12.222656,7.701172 c -0.0041,5.95e-4 -8.6e-4,0.0082 -0.0039,0.0098 h 0.03125 c -0.0068,-8.68e-4 -0.02226,-0.01036 -0.02734,-0.0098 z m 0.238282,0.0078 -0.002,0.002 h 0.0039 z" />
  <g
     id="g2571"
     transform="matrix(0.05908999,0,0,0.05694606,1.0642542,1.3114451)">
    <path
       d="M 154.5,0 H 20.5 C 9.2,0 0,9.2 0,20.6 v 135.2 c 0,11.4 9.2,20.6 20.5,20.6 h 113.4 l -5.3,-18.5 12.8,11.9 12.1,11.2 21.5,19 V 20.6 C 175,9.2 165.8,0 154.5,0 Z m -38.6,130.6 c 0,0 -3.6,-4.3 -6.6,-8.1 13.1,-3.7 18.1,-11.9 18.1,-11.9 -4.1,2.7 -8,4.6 -11.5,5.9 -5,2.1 -9.8,3.5 -14.5,4.3 -9.6,1.8 -18.4,1.3 -25.9,-0.1 -5.7,-1.1 -10.6,-2.7 -14.7,-4.3 -2.3,-0.9 -4.8,-2 -7.3,-3.4 -0.3,-0.2 -0.6,-0.3 -0.9,-0.5 -0.2,-0.1 -0.3,-0.2 -0.4,-0.3 -1.8,-1 -2.8,-1.7 -2.8,-1.7 0,0 4.8,8 17.5,11.8 -3,3.8 -6.7,8.3 -6.7,8.3 C 38.1,129.9 29.7,115.4 29.7,115.4 29.7,83.2 44.1,57.1 44.1,57.1 58.5,46.3 72.2,46.6 72.2,46.6 l 1,1.2 c -18,5.2 -26.3,13.1 -26.3,13.1 0,0 2.2,-1.2 5.9,-2.9 10.7,-4.7 19.2,-6 22.7,-6.3 0.6,-0.1 1.1,-0.2 1.7,-0.2 6.1,-0.8 13,-1 20.2,-0.2 9.5,1.1 19.7,3.9 30.1,9.6 0,0 -7.9,-7.5 -24.9,-12.7 l 1.4,-1.6 c 0,0 13.7,-0.3 28.1,10.5 0,0 14.4,26.1 14.4,58.3 0,0 -8.5,14.5 -30.6,15.2 z"
       transform="matrix(0.72,0,0,0.72,25.2,14.4)"
       id="shape0"
       inkscape:connector-curvature="0"
       style="fill:#9c2727" />
    <path
       d="M 10.2,0 C 4.5,0 0,5 0,11.1 c 0,6.1 4.6,11.1 10.2,11.1 5.7,0 10.2,-5 10.2,-11.1 C 20.5,5 15.9,0 10.2,0 Z M 46.7,0 C 41,0 36.5,5 36.5,11.1 c 0,6.1 4.6,11.1 10.2,11.1 5.7,0 10.2,-5 10.2,-11.1 C 56.9,5 52.4,0 46.7,0 Z"
       transform="matrix(0.72,0,0,0.72,67.716,74.808)"
       id="shape1"
       inkscape:connector-curvature="0"
       style="fill:#9c2727" />
  </g>
</svg>
