<?xml version="1.0" encoding="UTF-8" standalone="no"?>
<svg
   xmlns:dc="http://purl.org/dc/elements/1.1/"
   xmlns:cc="http://creativecommons.org/ns#"
   xmlns:rdf="http://www.w3.org/1999/02/22-rdf-syntax-ns#"
   xmlns:svg="http://www.w3.org/2000/svg"
   xmlns="http://www.w3.org/2000/svg"
   xmlns:sodipodi="http://sodipodi.sourceforge.net/DTD/sodipodi-0.dtd"
   xmlns:inkscape="http://www.inkscape.org/namespaces/inkscape"
   width="48"
   height="48"
   version="1"
   id="svg6"
   sodipodi:docname="visual-studio-code.svg"
   inkscape:version="0.92.4 5da689c313, 2019-01-14">
  <metadata
     id="metadata12">
    <rdf:RDF>
      <cc:Work
         rdf:about="">
        <dc:format>image/svg+xml</dc:format>
        <dc:type
           rdf:resource="http://purl.org/dc/dcmitype/StillImage" />
      </cc:Work>
    </rdf:RDF>
  </metadata>
  <defs
     id="defs10" />
  <sodipodi:namedview
     pagecolor="#ffffff"
     bordercolor="#666666"
     borderopacity="1"
     objecttolerance="10"
     gridtolerance="10"
     guidetolerance="10"
     inkscape:pageopacity="0"
     inkscape:pageshadow="2"
     inkscape:window-width="640"
     inkscape:window-height="480"
     id="namedview8"
     showgrid="false"
     inkscape:zoom="13.906433"
     inkscape:cx="22.30587"
     inkscape:cy="23.569723"
     inkscape:window-x="50"
     inkscape:window-y="0"
     inkscape:window-maximized="0"
     inkscape:current-layer="svg6" />
  <path
     d="M24 .229v.003A23.773 23.773 0 0 0 .227 24.006 23.773 23.773 0 0 0 24 47.77a23.773 23.773 0 0 0 23.773-23.769A23.773 23.773 0 0 0 24 .229zm-.066 3.542a20.436 20.436 0 0 1 20.435 20.436 20.436 20.436 0 0 1-20.435 20.436A20.436 20.436 0 0 1 3.5 24.207 20.436 20.436 0 0 1 23.934 3.773z"
     fill="#a02c2c"
     id="path2" />
  <path
     d="M26.094 7.84l4.164 26H7.094l23.964 4.997 7.036-4.113-4.016-25.093zm-7.098 6l-6.123 8.339-4.57-2.445-2.209.728 5.253 3.794-3.825 5.209 2.33.019 3.589-3.716 8.41 6.072 4.243-2.584-2.262-14.25zm.841 5.303l1.173 7.391-5.478-2.932z"
     fill="#1c65c2"
     opacity=".75"
     id="path4" />
  <path
     style="fill:#2b0000;fill-opacity:1;stroke-width:0.20338982"
     d="M 19.404556,36.351628 8.1582644,33.986441 19.267791,33.933848 30.377317,33.881258 30.263646,33.323679 C 29.826875,31.181225 26.264118,8.2036787 26.354656,8.1131405 c 0.108004,-0.1080041 7.429442,1.4811272 7.597328,1.6490139 0.04391,0.043914 0.939777,5.4665806 1.990804,12.0503696 1.05103,6.58379 1.947523,12.174195 1.99221,12.423124 0.07112,0.396212 -0.355066,0.706609 -3.420974,2.491526 -1.926222,1.12141 -3.583436,2.027839 -3.682699,2.014285 -0.09926,-0.01355 -5.241309,-1.088976 -11.426769,-2.389831 z"
     id="path14"
     inkscape:connector-curvature="0" />
  <path
     style="fill:#2b0000;fill-opacity:1;stroke-width:0.20338982"
     d="m 17.633898,28.695285 c -2.237288,-1.61942 -4.123392,-2.944789 -4.191342,-2.945266 -0.06795,-4.68e-4 -0.921985,0.827388 -1.897855,1.839699 l -1.7743104,1.840565 -1.0113935,-0.0609 -1.0113937,-0.0609 1.8474192,-2.526237 c 1.0160804,-1.38943 1.7760904,-2.590463 1.6889104,-2.668962 -0.08718,-0.0785 -1.028001,-0.763628 -2.0907127,-1.522511 C 8.1305085,21.831882 7.0529811,21.050291 6.7987151,20.853896 l -0.4623018,-0.357082 1.0022981,-0.33291 1.002298,-0.33291 2.2905846,1.230193 c 1.259821,0.676607 2.307493,1.207345 2.32816,1.179419 0.02067,-0.02793 1.395478,-1.910338 3.055135,-4.183136 2.548772,-3.490385 3.08271,-4.115047 3.436929,-4.020913 0.230653,0.0613 1.297408,0.317337 2.370568,0.568977 l 1.9512,0.457529 0.650928,4.173553 c 0.358011,2.295454 0.861423,5.48011 1.118694,7.077012 l 0.467764,2.903458 -2.011556,1.215186 c -1.106356,0.668352 -2.075943,1.213437 -2.154639,1.211299 -0.07869,-0.0021 -1.973591,-1.328866 -4.210879,-2.948286 z m 2.856311,-5.94117 c -0.28453,-1.793752 -0.517328,-3.384819 -0.517328,-3.535704 0,-0.286454 -3.397766,2.975554 -4.085128,3.921905 l -0.394908,0.543706 2.697645,1.429441 c 1.795767,0.951549 2.717605,1.341276 2.757346,1.16573 0.03284,-0.145041 -0.173097,-1.731325 -0.457627,-3.525078 z"
     id="path16"
     inkscape:connector-curvature="0" />
  <path
     style="fill:#aa0000;fill-opacity:1;stroke-width:0.20338982"
     d="M 27.294915,38.041755 C 25.561017,37.665443 20.625634,36.621297 16.327397,35.721427 12.02916,34.821557 8.4672951,34.040176 8.4121423,33.985023 8.3569896,33.92987 13.271235,33.884746 19.332689,33.884746 H 30.353512 L 30.246873,33.427118 C 30.128166,32.91771 28.369406,21.838243 27.094456,13.568198 26.639352,10.616131 26.310207,8.1575899 26.363023,8.104774 c 0.113047,-0.1130471 7.109155,1.3718811 7.446875,1.5806039 0.218114,0.1348016 4.057052,23.2597031 4.059934,24.4561311 10e-4,0.456527 -0.198809,0.689225 -1.066442,1.241349 -2.107359,1.341037 -5.793814,3.382855 -6.072122,3.363171 -0.156096,-0.01104 -1.702454,-0.327964 -3.436353,-0.704274 z"
     id="path25"
     inkscape:connector-curvature="0" />
  <path
     style="fill:#aa0000;fill-opacity:1;stroke-width:0.07190917"
     d="m 21.097796,31.180783 c -0.375725,-0.263088 -2.026041,-1.436708 -3.667367,-2.608045 -4.325135,-3.086642 -3.9423,-2.83069 -4.084196,-2.730572 -0.06737,0.04753 -0.899109,0.877603 -1.84831,1.844597 l -1.7258204,1.75817 -0.988751,-0.0513 c -0.5438131,-0.02822 -0.988751,-0.07934 -0.988751,-0.113609 0,-0.03427 0.5125227,-0.765733 1.1389393,-1.625475 1.2920261,-1.773275 2.2110941,-3.118091 2.2805871,-3.337043 0.03113,-0.09809 0.0018,-0.192511 -0.0862,-0.277722 -0.07335,-0.07101 -1.023246,-0.771826 -2.1108716,-1.557377 -2.5258404,-1.82432 -2.654467,-1.919648 -2.6578346,-1.969774 -0.00285,-0.04237 1.8416049,-0.662508 1.9759696,-0.664357 0.04025,-5.53e-4 0.8330482,0.405005 1.7617746,0.901241 0.928726,0.496236 1.949968,1.033107 2.269425,1.193045 l 0.580833,0.290797 1.500658,-2.061947 c 3.367665,-4.627264 4.430768,-5.981451 4.804177,-6.119584 0.113547,-0.042 4.478853,0.933429 4.535068,1.013367 0.0093,0.01325 0.07111,0.380035 0.13732,0.815086 0.168031,1.104086 1.752343,11.145806 1.94907,12.353639 l 0.161572,0.991991 -1.659668,0.992303 c -1.928769,1.153195 -2.444188,1.447118 -2.531332,1.443521 -0.03474,-0.0014 -0.370568,-0.217861 -0.746293,-0.480949 z M 20.953137,26.21722 c -0.002,-0.300648 -0.993326,-6.932665 -1.043801,-6.98314 -0.0596,-0.0596 -0.880389,0.690921 -2.268766,2.074559 -1.385231,1.380503 -2.127405,2.238548 -2.047743,2.367443 0.07491,0.121213 4.384096,2.36238 4.929696,2.56389 0.346665,0.128036 0.431591,0.123549 0.430614,-0.02275 z"
     id="path27"
     inkscape:connector-curvature="0" />
  <path
     style="fill:#aa0000;fill-opacity:1;stroke-width:0.07190917"
     d="m 18.699121,29.602261 c -1.730198,-1.247927 -3.130514,-2.284258 -3.111815,-2.302958 0.0187,-0.0187 1.209581,0.805329 2.646404,1.831174 3.471852,2.478792 3.560185,2.537893 3.709819,2.482167 0.130798,-0.04871 1.284019,-0.717022 3.017371,-1.748614 0.771553,-0.459185 1.02272,-0.643965 1.022805,-0.752466 6.3e-5,-0.0791 -0.493614,-3.266474 -1.097059,-7.083053 l -1.097173,-6.939234 -0.25395,-0.08369 c -0.31502,-0.103815 -4.060937,-0.958994 -4.200654,-0.958994 -0.311732,0 -1.20126,1.1038 -4.277389,5.307737 -1.573078,2.149819 -2.133991,2.866755 -2.217735,2.83462 -0.0729,-0.02797 -0.08216,-0.05299 -0.02649,-0.07155 0.04708,-0.0157 1.417724,-1.846136 3.045866,-4.067648 1.628143,-2.221512 3.00164,-4.084441 3.052217,-4.139842 0.07823,-0.08569 0.442668,-0.01629 2.440808,0.464774 1.291868,0.311026 2.390233,0.599048 2.440812,0.640048 0.05767,0.04675 0.499894,2.662223 1.185893,7.013779 0.601661,3.816579 1.109272,7.006608 1.128021,7.088954 0.02952,0.129622 -0.248876,0.321572 -2.074016,1.430019 -1.159459,0.704165 -2.126066,1.290073 -2.148016,1.302018 -0.02195,0.01194 -1.455524,-0.999313 -3.185722,-2.247241 z"
     id="path29"
     inkscape:connector-curvature="0" />
  <path
     style="fill:#aa0000;fill-opacity:1;stroke-width:0.07190917"
     d="m 20.450613,30.863821 c -0.771225,-0.552768 -2.140053,-1.545288 -3.041838,-2.205601 -3.0833,-2.257677 -3.87162,-2.818523 -3.961688,-2.818523 -0.04957,0 -0.861529,0.800888 -1.804363,1.779752 -0.942834,0.978863 -1.7494286,1.798779 -1.7924325,1.822036 -0.043004,0.02326 -0.5705688,0.02326 -1.1723666,0 L 7.5837472,29.3992 8.9560663,27.529562 c 1.4552757,-1.982657 1.9787917,-2.731645 2.1728447,-3.10866 l 0.119563,-0.232294 -0.666276,-0.490216 C 10.215745,23.428773 9.0907633,22.614272 8.0822372,21.888389 7.0737112,21.162505 6.2215468,20.544865 6.1885386,20.515854 6.1555303,20.486843 6.6162762,20.300146 7.2124182,20.100971 l 1.0838945,-0.362135 2.2407743,1.195317 2.240774,1.195316 0.210287,-0.248229 c 0.115658,-0.136526 1.505758,-2.003712 3.08911,-4.149301 1.583353,-2.14559 2.899592,-3.900832 2.924975,-3.900538 0.223145,0.0026 4.740227,1.110068 4.809283,1.179123 0.04852,0.04852 0.543221,3.028553 1.487236,8.958984 0.785563,4.935012 0.823162,5.21931 0.705398,5.33381 -0.110333,0.107276 -2.987802,1.895903 -3.827717,2.3793 l -0.323591,0.186236 z m 0.467126,-4.790419 c -0.01795,-0.108763 -0.100373,-0.666958 -0.183153,-1.240433 -0.242651,-1.681012 -0.851709,-5.481529 -0.883555,-5.513376 -0.06767,-0.06767 -0.90662,0.734576 -2.510489,2.400642 -0.939313,0.97574 -1.707843,1.812769 -1.707843,1.860066 0,0.0473 0.881787,0.556443 1.959525,1.131437 2.326073,1.241004 2.978677,1.559414 3.196132,1.559414 0.13673,0 0.15693,-0.03087 0.129383,-0.19775 z"
     id="path31"
     inkscape:connector-curvature="0" />
  <path
     style="fill:#aa0000;fill-opacity:1;stroke-width:0.07190917"
     d="m 35.159633,36.350576 c 0.03757,-0.03287 0.408085,-0.264199 0.82336,-0.514059 1.170021,-0.703971 1.620724,-1.044681 1.754296,-1.326162 0.139282,-0.293516 0.125303,-0.448993 -0.287257,-3.19494 -0.138763,-0.923584 -0.242239,-1.731462 -0.229948,-1.795285 0.01823,-0.09469 0.860462,5.024776 0.851106,5.17343 -0.0033,0.05314 -2.833289,1.716784 -2.920338,1.716784 -0.03274,0 -0.02879,-0.0269 0.0088,-0.05977 z"
     id="path33"
     inkscape:connector-curvature="0" />
  <path
     style="fill:#aa0000;fill-opacity:1;stroke-width:0.07190917"
     d="m 30.553851,38.733757 c -0.0791,-0.0181 -1.130772,-0.239265 -2.337048,-0.491483 C 19.381194,36.394857 8.3577862,34.048556 8.3149981,34.006231 8.2315542,33.92369 11.336001,33.894132 20.118034,33.89385 l 10.202112,-3.27e-4 -0.0479,-0.233705 C 30.176513,33.192702 29.48757,28.927613 28.71867,24.041968 28.286078,21.29324 27.913823,18.939114 27.891439,18.810576 l -0.0407,-0.233705 h 3.799208 3.799207 l 0.703646,4.296573 c 0.387006,2.363115 0.816729,4.976114 0.95494,5.806665 0.610991,3.671622 0.9606,5.8331 0.960608,5.939012 9e-6,0.108203 -1.519555,1.060775 -2.660629,1.667875 -0.257076,0.136775 -1.082233,0.596169 -1.833684,1.020876 -1.419593,0.80233 -2.725656,1.48155 -2.821128,1.467133 -0.03038,-0.0046 -0.119957,-0.02315 -0.199057,-0.04125 z"
     id="path37"
     inkscape:connector-curvature="0" />
  <path
     style="fill:#aa0000;fill-opacity:1;stroke-width:0.07190917"
     d="m 30.812124,38.801324 c 0.0083,-0.06793 2.083028,-1.116332 2.125366,-1.073993 0.05521,0.0552 -1.832547,1.127925 -1.984899,1.127925 -0.08088,0 -0.144092,-0.02427 -0.140467,-0.05393 z"
     id="path39"
     inkscape:connector-curvature="0" />
  <path
     style="fill:#aa0000;fill-opacity:1;stroke-width:0.07190917"
     d="M 9.4485114,34.366948 C 8.2817852,34.120102 7.2786523,33.898974 7.2193273,33.875552 c -0.059325,-0.02342 5.0914927,-0.04514 11.4462617,-0.04826 10.940726,-0.0054 11.555871,-0.01236 11.587011,-0.131518 0.02475,-0.0947 0.03495,-0.0858 0.04123,0.03595 l 0.0083,0.161795 h -9.660255 c -8.473199,0 -12.3305993,0.03732 -12.2494079,0.118511 0.013124,0.01312 0.7819298,0.187126 1.7084579,0.386672 1.810097,0.389838 1.923657,0.418608 1.648641,0.417668 -0.09888,-3.37e-4 -1.134367,-0.202579 -2.3010936,-0.449426 z"
     id="path41"
     inkscape:connector-curvature="0" />
  <path
     style="fill:#aa0000;fill-opacity:1;stroke-width:0.07190917"
     d="M 35.68099,20.044908 C 35.534664,19.178163 35.087877,16.528548 34.68813,14.156875 34.288384,11.785202 33.928774,9.8055286 33.888997,9.7576004 33.718026,9.5515926 26.614324,8.0087213 26.397647,8.130535 c -0.03156,0.017743 -0.03915,0.1669166 -0.01686,0.3314974 0.307742,2.2727386 0.560025,4.0049756 0.980076,6.7294446 0.276966,1.796411 0.493869,3.349649 0.482008,3.45164 -0.01186,0.10199 -0.417346,-2.287958 -0.901078,-5.310996 -0.483732,-3.023038 -0.872042,-5.5034365 -0.86291,-5.511996 0.01831,-0.017164 7.984911,1.7664765 8.012309,1.7938741 0.04239,0.042386 1.897708,11.7913189 1.87802,11.8926699 -0.01219,0.06278 -0.141892,-0.595016 -0.288219,-1.461761 z"
     id="path43"
     inkscape:connector-curvature="0" />
</svg>
